<svg width="854.36005859375px" height="149.62501220703123px" xmlns="http://www.w3.org/2000/svg" viewBox="-177.18002929687498 0.18749389648438353 854.36005859375 149.62501220703123" style="background: rgb(253, 253, 253);" preserveAspectRatio="xMidYMid"><defs><filter id="editing-extrude-glow"><feFlood flood-color="rgba(54.12327044025158%,60.81348765921463%,66.0952380952381%,0.388)" result="flood-1"></feFlood><feMorphology operator="erode" radius="1" in="SourceAlpha" result="erode"></feMorphology><feComposite operator="in" in="flood-1" in2="erode" result="comp1"></feComposite><feConvolveMatrix order="16,16" divisor="1" in="comp1" result="convolve" kernelMatrix="0 0 0 0 0 0 0 0 0 0 0 0 0 0 0 0 0 0 0 0 0 0 0 0 0 0 0 0 0 0 0 0 0 0 0 0 0 0 0 0 0 0 0 0 0 0 0 0 0 0 0 0 0 0 0 0 0 0 0 0 0 0 0 0 0 0 0 0 0 0 0 0 0 0 0 0 0 0 0 0 0 0 0 0 0 0 0 0 0 0 0 0 0 0 0 0 0 0 0 0 0 0 0 0 0 0 0 0 0 0 0 0 0 0 0 0 0 0 0 0 0 0 0 0 0 0 0 0 1 1 1 1 1 1 1 1 1 1 1 1 1 1 1 1 0 0 0 0 0 0 0 0 0 0 0 0 0 0 0 0 0 0 0 0 0 0 0 0 0 0 0 0 0 0 0 0 0 0 0 0 0 0 0 0 0 0 0 0 0 0 0 0 0 0 0 0 0 0 0 0 0 0 0 0 0 0 0 0 0 0 0 0 0 0 0 0 0 0 0 0 0 0 0 0 0 0 0 0 0 0 0 0 0 0 0 0 0 0 0 0 0 0 0 0 0 0 0 0 0 0 0 0 0 0 0 0"></feConvolveMatrix><feOffset dx="-16" dy="0" in="convolve" result="extrude"></feOffset><feComposite operator="in" in="flood-1" in2="extrude" result="comp-extrude"></feComposite><feFlood flood-color="#dce4eb" result="flood-2"></feFlood><feComposite operator="in" in="flood-2" in2="SourceAlpha" result="comp2"></feComposite><feMorphology operator="dilate" radius="1" in="comp2" result="dilate"></feMorphology><feOffset dx="-24" dy="0" in="dilate" result="offset"></feOffset><feGaussianBlur in="offset" stdDeviation="5.8" result="blur"></feGaussianBlur><feComponentTransfer in="blur" result="shadow"><feFuncA type="linear" slope="0.8" intercept="-0.2"></feFuncA></feComponentTransfer><feMerge><feMergeNode in="shadow"></feMergeNode><feMergeNode in="comp-extrude"></feMergeNode><feMergeNode in="SourceGraphic"></feMergeNode></feMerge></filter></defs><g filter="url(#editing-extrude-glow)"><g transform="translate(-59.13498306274414, 106.15999984741211)"><path d="M33.63-24.61L33.63-24.61Q39.90-14.25 49.40-1.80L49.40-1.80L49.30-0.85L49.30-0.85Q45.88 0.47 42.27 0.85L42.27 0.85L41.23 0.19L41.23 0.19Q33.44-11.50 27.27-22.61L27.27-22.61L16.15-22.61L16.15-19L16.53 0L8.84 0L9.31-18.34L8.84-60.90L27.46-60.99L27.46-60.99Q36.38-60.99 41.28-56.48L41.28-56.48L41.28-56.48Q46.17-51.97 46.17-43.61L46.17-43.61L46.17-43.61Q46.17-37.34 42.89-32.35L42.89-32.35L42.89-32.35Q39.62-27.36 33.63-24.61L33.63-24.61ZM16.53-54.44L16.25-29.07L27.64-28.79L27.64-28.79Q38.29-31.82 38.29-42.94L38.29-42.94L38.29-42.94Q38.29-48.73 35.15-51.63L35.15-51.63L35.15-51.63Q32.02-54.53 25.75-54.72L25.75-54.72L16.53-54.44ZM100.89-60.90L121.22 0L113.43 0L112.01-6.08L108.59-16.53L94.91-16.82L82.56-16.53L78.85-6.46L77.33 0L69.73 0L92.06-60.90L100.89-60.90ZM95.57-22.80L106.50-22.99L96.62-53.01L95.95-53.01L84.93-22.99L95.57-22.80ZM166.16-54.53L155.52-54.34L155.33-33.16L165.59-32.97L175.47-33.25L176.04-32.49L175.37-26.70L164.83-26.98L155.23-26.89L155.14-19L155.52 0L147.82 0L148.30-18.34L147.82-60.90L180.22-60.90L180.79-60.13L180.12-54.05L166.16-54.53ZM228.38-60.90L248.71 0L240.92 0L239.50-6.08L236.08-16.53L222.40-16.82L210.05-16.53L206.34-6.46L204.82 0L197.22 0L219.55-60.90L228.38-60.90ZM223.06-22.80L233.99-22.99L224.11-53.01L223.44-53.01L212.42-22.99L223.06-22.80ZM309.61-6.65L310.08-5.89L309.51 0L275.31 0L275.79-18.34L275.31-60.90L309.61-60.90L309.99-60.13L309.42-54.24L295.07-54.53L283.00-54.34L282.81-34.39L294.22-34.20L304.29-34.48L304.86-33.82L304.19-27.93L293.55-28.12L282.72-28.02L282.63-19L282.91-6.37L294.98-6.27L309.61-6.65ZM366.61-6.37L367.18-5.70L366.51 0L336.49 0L336.97-18.34L336.49-60.90L344.28-60.90L343.81-19L344.09-6.37L366.61-6.37ZM416.77-24.61L416.77-24.61Q423.04-14.25 432.54-1.80L432.54-1.80L432.44-0.85L432.44-0.85Q429.02 0.47 425.41 0.85L425.41 0.85L424.37 0.19L424.37 0.19Q416.58-11.50 410.40-22.61L410.40-22.61L399.29-22.61L399.29-19L399.67 0L391.97 0L392.45-18.34L391.97-60.90L410.59-60.99L410.59-60.99Q419.52-60.99 424.41-56.48L424.41-56.48L424.41-56.48Q429.31-51.97 429.31-43.61L429.31-43.61L429.31-43.61Q429.31-37.34 426.03-32.35L426.03-32.35L426.03-32.35Q422.75-27.36 416.77-24.61L416.77-24.61ZM399.67-54.44L399.38-29.07L410.78-28.79L410.78-28.79Q421.42-31.82 421.42-42.94L421.42-42.94L421.42-42.94Q421.42-48.73 418.29-51.63L418.29-51.63L418.29-51.63Q415.15-54.53 408.88-54.72L408.88-54.72L399.67-54.44ZM468.16-60.90L467.69-19L468.07 0L460.37 0L460.85-18.34L460.37-60.90L468.16-60.90ZM523.55-61.47L523.55-61.47Q536.09-61.47 542.78-53.77L542.78-53.77L542.78-53.77Q549.48-46.08 549.48-31.64L549.48-31.64L549.48-31.64Q549.48-16.05 542.36-7.65L542.36-7.65L542.36-7.65Q535.23 0.76 522.03 0.76L522.03 0.76L522.03 0.76Q509.68 0.76 502.98-7.22L502.98-7.22L502.98-7.22Q496.28-15.20 496.28-29.93L496.28-29.93L496.28-29.93Q496.28-45.13 503.36-53.30L503.36-53.30L503.36-53.30Q510.44-61.47 523.55-61.47L523.55-61.47ZM523.07-55.29L523.07-55.29Q504.07-55.29 504.07-30.78L504.07-30.78L504.07-30.78Q504.07-17.77 508.68-11.50L508.68-11.50L508.68-11.50Q513.29-5.22 522.60-5.22L522.60-5.22L522.60-5.22Q541.60-5.22 541.60-30.21L541.60-30.21L541.60-30.21Q541.60-42.94 536.99-49.12L536.99-49.12L536.99-49.12Q532.38-55.29 523.07-55.29L523.07-55.29ZM594.04-61.37L594.04-61.37Q600.59-61.37 607.62-58.52L607.62-58.52L606.39-51.20L605.06-50.83L605.06-50.83Q602.30-52.91 599.21-54.05L599.21-54.05L599.21-54.05Q596.13-55.20 593.09-55.20L593.09-55.20L593.09-55.20Q589.57-55.20 586.96-53.77L586.96-53.77L586.96-53.77Q584.35-52.34 582.97-50.06L582.97-50.06L582.97-50.06Q581.59-47.79 581.59-45.31L581.59-45.31L581.59-45.31Q581.59-42.75 583.16-40.80L583.16-40.80L583.16-40.80Q584.73-38.86 587.10-37.43L587.10-37.43L587.10-37.43Q589.48-36.01 593.56-34.01L593.56-34.01L593.56-34.01Q598.69-31.64 601.83-29.59L601.83-29.59L601.83-29.59Q604.96-27.55 607.19-24.41L607.19-24.41L607.19-24.41Q609.43-21.28 609.43-16.82L609.43-16.82L609.43-16.82Q609.43-12.06 606.86-8.07L606.86-8.07L606.86-8.07Q604.30-4.08 599.64-1.71L599.64-1.71L599.64-1.71Q594.99 0.67 589.00 0.67L589.00 0.67L589.00 0.67Q585.01 0.67 580.69-0.43L580.69-0.43L580.69-0.43Q576.37-1.52 572.66-3.61L572.66-3.61L573.61-11.40L574.66-11.88L574.66-11.88Q577.98-8.64 582.02-7.08L582.02-7.08L582.02-7.08Q586.06-5.51 589.76-5.51L589.76-5.51L589.76-5.51Q593.37-5.51 596.17-6.94L596.17-6.94L596.17-6.94Q598.98-8.36 600.45-10.73L600.45-10.73L600.45-10.73Q601.92-13.11 601.92-15.77L601.92-15.77L601.92-15.77Q601.92-19.76 598.88-22.18L598.88-22.18L598.88-22.18Q595.84-24.61 589.67-27.46L589.67-27.46L589.67-27.46Q584.63-29.93 581.59-31.87L581.59-31.87L581.59-31.87Q578.55-33.82 576.37-36.91L576.37-36.91L576.37-36.91Q574.18-39.99 574.18-44.46L574.18-44.46L574.18-44.46Q574.18-49.12 576.70-53.01L576.70-53.01L576.70-53.01Q579.22-56.91 583.73-59.14L583.73-59.14L583.73-59.14Q588.24-61.37 594.04-61.37L594.04-61.37Z" fill="#000000"></path></g></g><style>text {
  font-size: 64px;
  font-family: Arial Black;
  dominant-baseline: central;
  text-anchor: middle;
}</style></svg>